<svg width="23" height="22" viewBox="0 0 23 22" fill="none" xmlns="http://www.w3.org/2000/svg">
<path d="M3.93075 16.3275C3.9842 16.1393 3.86606 15.8776 3.75331 15.689C3.7182 15.6328 3.68011 15.5783 3.6392 15.5257C2.67216 14.1229 2.15672 12.4795 2.15678 10.7992C2.14106 5.97591 6.32239 2.06189 11.4929 2.06189C16.0022 2.06189 19.7662 5.04994 20.6457 9.01638C20.7775 9.60445 20.8441 10.2042 20.8443 10.8056C20.8443 15.6357 16.8242 19.6112 11.6537 19.6112C10.8316 19.6112 9.72208 19.4135 9.11698 19.2515C8.51188 19.0895 7.90768 18.8747 7.7518 18.8171C7.59238 18.7585 7.42307 18.7284 7.25227 18.7282C7.06572 18.7275 6.88096 18.763 6.70917 18.8326L3.66211 19.8845C3.59536 19.912 3.52463 19.9297 3.45233 19.9369C3.39528 19.9367 3.33883 19.9257 3.28625 19.9046C3.23367 19.8834 3.186 19.8524 3.14602 19.8135C3.10603 19.7746 3.07452 19.7284 3.05331 19.6778C3.03209 19.6271 3.02159 19.5729 3.02243 19.5184C3.02617 19.4705 3.03521 19.4231 3.04938 19.377L3.93075 16.3275Z" stroke="black" stroke-width="1.00189" stroke-miterlimit="10" stroke-linecap="round"/>
</svg>
