<svg width="22" height="23" viewBox="0 0 22 23" fill="none" xmlns="http://www.w3.org/2000/svg">
<path d="M3.43652 9.52307V20.1246C3.43652 20.3153 3.50896 20.4981 3.63789 20.6329C3.76682 20.7677 3.94169 20.8434 4.12402 20.8434H8.24903V14.734C8.24903 14.4481 8.35767 14.1738 8.55107 13.9717C8.74447 13.7695 9.00677 13.6559 9.28028 13.6559H12.7178C12.9913 13.6559 13.2536 13.7695 13.447 13.9717C13.6404 14.1738 13.749 14.4481 13.749 14.734V20.8434H17.874C18.0564 20.8434 18.2312 20.7677 18.3602 20.6329C18.4891 20.4981 18.5615 20.3153 18.5615 20.1246V9.52307" stroke="black" stroke-width="1.00189" stroke-linecap="round" stroke-linejoin="round"/>
<path d="M20.6248 11.4992L11.4677 2.33515C11.2528 2.09797 10.7505 2.09527 10.5318 2.33515L1.37476 11.4992" stroke="black" stroke-width="1.00189" stroke-linecap="round" stroke-linejoin="round"/>
<path d="M17.1878 8.04251V2.87439H15.1245V5.97526" stroke="black" stroke-width="1.00189" stroke-linecap="round" stroke-linejoin="round"/>
</svg>
