<svg width="51" height="51" viewBox="0 0 51 51" fill="none" xmlns="http://www.w3.org/2000/svg">
<path d="M15.9337 33.4675V4.78003L19.1212 6.37378L22.3087 4.78003L25.4902 6.37378L28.7145 4.78003L31.8712 6.37378L35.0377 4.78003L38.2183 6.37378L41.4337 4.78003L44.6222 6.37378L47.8087 4.78003V27.0925" stroke="#230105" stroke-width="1.00189" stroke-linejoin="round"/>
<path d="M47.8116 27.0959V38.2522C47.8116 40.3656 46.972 42.3925 45.4776 43.887C43.9832 45.3814 41.9563 46.2209 39.8428 46.2209V46.2209C37.7294 46.2209 35.7025 45.3814 34.2081 43.887C32.7136 42.3925 31.8741 40.3656 31.8741 38.2522V33.4709H4.78034C4.57052 33.4691 4.36244 33.509 4.16824 33.5885C3.97404 33.6679 3.7976 33.7852 3.64924 33.9336C3.50087 34.082 3.38355 34.2584 3.30411 34.4526C3.22468 34.6468 3.18473 34.8549 3.18659 35.0647C3.18659 41.4397 3.85795 46.2209 11.1553 46.2209H39.8428" stroke="#230105" stroke-width="1.00189" stroke-linejoin="round"/>
<path d="M22.3099 14.3438H41.4377" stroke="#230105" stroke-width="1.00189" stroke-linecap="round" stroke-linejoin="round"/>
<path d="M28.687 22.3137H41.4388" stroke="#230105" stroke-width="1.00189" stroke-linecap="round" stroke-linejoin="round"/>
</svg>
