<svg width="21" height="21" viewBox="0 0 21 21" fill="none" xmlns="http://www.w3.org/2000/svg">
<path d="M9.06821 2.62634C7.79387 2.62634 6.54816 3.00423 5.48859 3.71221C4.42902 4.42019 3.60319 5.42647 3.11552 6.6038C2.62785 7.78113 2.50026 9.07663 2.74887 10.3265C2.99748 11.5763 3.61113 12.7244 4.51222 13.6255C5.41331 14.5266 6.56137 15.1402 7.81121 15.3888C9.06106 15.6374 10.3566 15.5098 11.5339 15.0222C12.7112 14.5345 13.7175 13.7087 14.4255 12.6491C15.1335 11.5895 15.5113 10.3438 15.5113 9.06949C15.5112 7.36069 14.8324 5.72192 13.6241 4.51362C12.4158 3.30532 10.777 2.62645 9.06821 2.62634V2.62634Z" stroke="black" stroke-width="1.00189" stroke-miterlimit="10"/>
<path d="M13.8746 13.8766L18.3763 18.3782" stroke="black" stroke-width="1.00189" stroke-miterlimit="10" stroke-linecap="round"/>
</svg>
