<svg width="49" height="48" viewBox="0 0 49 48" fill="none" xmlns="http://www.w3.org/2000/svg">
<path d="M24.5014 19.498C34.6496 19.498 42.8764 16.1402 42.8764 11.998C42.8764 7.85591 34.6496 4.49805 24.5014 4.49805C14.3532 4.49805 6.1264 7.85591 6.1264 11.998C6.1264 16.1402 14.3532 19.498 24.5014 19.498Z" stroke="#230105" stroke-width="1.00189" stroke-miterlimit="10" stroke-linecap="round"/>
<path d="M42.8764 20.0625C42.8764 24.2044 34.6459 27.5625 24.5014 27.5625C14.3569 27.5625 6.1264 24.2044 6.1264 20.0625" stroke="#230105" stroke-width="1.00189" stroke-miterlimit="10" stroke-linecap="round"/>
<path d="M42.8764 28.1238C42.8764 32.2657 34.6459 35.6238 24.5014 35.6238C14.3569 35.6238 6.1264 32.2657 6.1264 28.1238" stroke="#230105" stroke-width="1.00189" stroke-miterlimit="10" stroke-linecap="round"/>
<path d="M6.1264 11.929V36.0715C6.1264 40.174 14.3569 43.5002 24.5014 43.5002C34.6459 43.5002 42.8764 40.174 42.8764 36.0715V11.929" stroke="#230105" stroke-width="1.00189" stroke-miterlimit="10" stroke-linecap="round"/>
</svg>
