<svg width="48" height="47" viewBox="0 0 48 47" fill="none" xmlns="http://www.w3.org/2000/svg">
<path d="M24.5878 17.6547C23.3567 17.5356 22.1182 17.7921 21.0417 18.3889C19.9653 18.9857 19.1035 19.8937 18.5745 20.9886C18.0454 22.0835 17.8749 23.3118 18.0864 24.5052C18.2978 25.6987 18.8807 26.799 19.7554 27.6555C20.6302 28.512 21.7539 29.0828 22.9727 29.2898C24.1916 29.4968 25.4459 29.3299 26.5641 28.8118C27.6823 28.2938 28.6097 27.45 29.2192 26.396C29.8287 25.342 30.0906 24.1292 29.969 22.9238C29.8304 21.5725 29.2189 20.3098 28.2382 19.3494C27.2575 18.3891 25.9678 17.7904 24.5878 17.6547V17.6547ZM39.0347 23.5012C39.0308 24.1398 38.9829 24.7774 38.8912 25.4097L43.1297 28.6648C43.3142 28.8146 43.4386 29.0236 43.4806 29.2547C43.5227 29.4858 43.4797 29.724 43.3594 29.927L39.3497 36.72C39.2279 36.921 39.0376 37.0735 38.8122 37.1506C38.5868 37.2277 38.3409 37.2244 38.1178 37.1413L33.9084 35.4816C33.6763 35.3911 33.4249 35.3584 33.1766 35.3865C32.9284 35.4145 32.6912 35.5024 32.4862 35.6423C31.8438 36.0754 31.1687 36.4603 30.4669 36.7934C30.2462 36.8984 30.0553 37.055 29.9111 37.2494C29.7669 37.4437 29.6738 37.6699 29.64 37.9078L29.009 42.304C28.9676 42.5361 28.8451 42.747 28.6625 42.9006C28.4799 43.0541 28.2484 43.1408 28.0078 43.1458H19.9884C19.7517 43.1417 19.5235 43.0589 19.3413 42.9109C19.1592 42.7629 19.0339 42.5585 18.9862 42.3315L18.3562 37.9418C18.3208 37.7012 18.2253 37.4729 18.0781 37.2772C17.9309 37.0815 17.7366 36.9245 17.5125 36.82C16.8114 36.4887 16.1386 36.1028 15.5006 35.6661C15.2963 35.527 15.0599 35.4397 14.8126 35.4123C14.5653 35.3849 14.3149 35.4182 14.084 35.5092L9.8756 37.1679C9.65258 37.2511 9.40674 37.2545 9.18139 37.1776C8.95604 37.1007 8.76564 36.9484 8.64372 36.7475L4.63404 29.9545C4.51349 29.7516 4.47041 29.5133 4.51247 29.2822C4.55453 29.051 4.679 28.842 4.86372 28.6923L8.44591 25.9384C8.64216 25.7859 8.7964 25.5878 8.89463 25.3621C8.99286 25.1363 9.03197 24.8902 9.00841 24.6459C8.97466 24.2631 8.95404 23.8813 8.95404 23.4985C8.95404 23.1157 8.97372 22.7393 9.00841 22.3648C9.0294 22.122 8.98837 21.8779 8.88903 21.6545C8.78969 21.4312 8.63516 21.2355 8.43935 21.0851L4.85904 18.3312C4.67731 18.1808 4.55546 17.9725 4.51484 17.7429C4.47421 17.5133 4.51741 17.277 4.63685 17.0754L8.64654 10.2825C8.7683 10.0814 8.95864 9.92892 9.184 9.85184C9.40937 9.77476 9.65528 9.77805 9.87841 9.86112L14.0878 11.5208C14.3199 11.6113 14.5713 11.644 14.8196 11.616C15.0678 11.5879 15.305 11.5 15.51 11.3602C16.1524 10.927 16.8275 10.5422 17.5293 10.209C17.75 10.104 17.9409 9.94742 18.0851 9.75306C18.2293 9.5587 18.3224 9.33256 18.3562 9.09462L18.9872 4.69847C19.0286 4.4663 19.1511 4.25542 19.3337 4.10189C19.5163 3.94835 19.7478 3.86168 19.9884 3.85669H28.0078C28.2445 3.8607 28.4727 3.94353 28.6549 4.09154C28.837 4.23954 28.9623 4.4439 29.01 4.67093L29.64 9.06065C29.6754 9.30122 29.7709 9.52951 29.9181 9.72521C30.0653 9.92091 30.2596 10.078 30.4837 10.1824C31.1848 10.5138 31.8576 10.8996 32.4956 11.3363C32.6999 11.4755 32.9363 11.5627 33.1836 11.5901C33.4309 11.6175 33.6813 11.5842 33.9122 11.4933L38.1206 9.8345C38.3436 9.75134 38.5895 9.74792 38.8148 9.82483C39.0402 9.90174 39.2306 10.054 39.3525 10.2549L43.3622 17.0479C43.4827 17.2509 43.5258 17.4891 43.4837 17.7203C43.4417 17.9514 43.3172 18.1604 43.1325 18.3101L39.5503 21.064C39.3532 21.2161 39.198 21.414 39.099 21.6397C38.9999 21.8654 38.9601 22.1119 38.9831 22.3565C39.014 22.7366 39.0347 23.1184 39.0347 23.5012Z" stroke="#230105" stroke-width="1.00189" stroke-linecap="round" stroke-linejoin="round"/>
</svg>
