<svg width="118" height="118" viewBox="0 0 118 118" fill="none" xmlns="http://www.w3.org/2000/svg">
<circle cx="59" cy="59" r="59" fill="white"/>
<path d="M19.9132 68.5559C19.3084 66.8913 18.816 65.2594 18.4313 63.6585C18.0482 62.0591 17.7499 60.5218 17.538 59.0431C17.326 57.5661 17.1826 56.1787 17.1109 54.881C17.0375 53.5832 17 52.4111 17 51.3677C17 50.5199 17.0245 49.6494 17.0734 48.7592C17.1223 47.8707 17.2119 46.9105 17.3423 45.8834C17.3912 45.4579 17.4809 44.99 17.6113 44.4748C17.7417 43.9596 17.9129 43.4819 18.1248 43.0418C18.3368 42.6 18.5894 42.2331 18.8845 41.9397C19.1779 41.6462 19.5121 41.4995 19.8887 41.4995C19.9702 41.4995 20.0648 41.5158 20.1707 41.5484C20.2767 41.581 20.3941 41.6218 20.5261 41.6707C21.0152 41.9332 21.3787 42.2462 21.6167 42.613C21.8531 42.9798 22.0243 43.3923 22.1302 43.8504C22.2362 44.3069 22.3014 44.7976 22.3258 45.3193C22.3503 45.8426 22.3878 46.3888 22.4367 46.9594C22.4693 47.4338 22.4905 47.8984 22.4986 48.3549C22.5068 48.8114 22.5117 49.2613 22.5117 49.7015C22.5117 50.8607 22.4497 51.9578 22.3275 52.9947C22.2052 54.0316 22.0243 55.0473 21.7879 56.0434C21.5515 57.0378 21.2646 58.0421 20.932 59.0545C20.5978 60.0669 20.218 61.1201 19.7942 62.214C19.9083 62.9477 20.0419 63.6634 20.1984 64.3562C20.3533 65.0491 20.5163 65.6621 20.6875 66.1936C20.8587 66.7234 21.0298 67.1571 21.201 67.4897C21.3722 67.8239 21.5222 68.0081 21.6542 68.0407C22.6177 68.0407 23.3887 67.8288 23.9675 67.4049C24.5462 66.981 25.0336 66.4332 25.4248 65.7648C25.8161 65.0964 26.1747 64.3448 26.5024 63.5117C26.8284 62.6803 27.2197 61.8472 27.6761 61.0141C27.7414 60.8837 27.8278 60.7973 27.9337 60.7565C28.0397 60.7158 28.1505 60.6946 28.2646 60.6946C28.4277 60.6946 28.5793 60.7484 28.7178 60.8544C28.8564 60.9603 28.9265 61.1038 28.9265 61.2831C28.9265 61.3483 28.9021 61.438 28.8531 61.5521C28.2989 62.5156 27.8163 63.471 27.4088 64.4165C27.0012 65.3638 26.5644 66.2164 26.0997 66.9745C25.6335 67.7342 25.0874 68.3504 24.4581 68.8232C23.8305 69.296 23.0089 69.534 21.9982 69.534C21.0836 69.534 20.3908 69.2064 19.9164 68.5542L19.9132 68.5559ZM18.9334 46.0301C18.803 47.0425 18.7101 47.9848 18.653 48.8587C18.596 49.7309 18.5666 50.5851 18.5666 51.4166C18.5666 52.6409 18.6286 53.8571 18.7508 55.0652C18.8731 56.2732 19.0492 57.5954 19.2774 59.0317C19.817 57.4976 20.2408 55.9928 20.5506 54.5141C20.8603 53.0371 21.0152 51.4247 21.0152 49.6787C21.0152 48.487 20.9907 47.4925 20.9418 46.692C20.8929 45.8932 20.8228 45.2573 20.7331 44.7829C20.6435 44.3101 20.5408 43.9759 20.4283 43.7787C20.3142 43.583 20.1919 43.4852 20.0615 43.4852C19.9311 43.4852 19.7958 43.5879 19.6572 43.7917C19.517 43.9955 19.3948 44.2335 19.2904 44.5009C19.1845 44.7699 19.0981 45.0405 19.0329 45.3095C18.9676 45.5785 18.9334 45.7872 18.9334 45.9339L18.9334 46.0334L18.9334 46.0301Z" fill="#1D1D1B"/>
<path d="M35.1424 60.623C35.4522 60.5741 35.7538 60.5415 36.0488 60.5252C36.3439 60.5089 36.6292 60.5007 36.9047 60.5007C37.4752 60.517 37.9333 60.5284 38.2757 60.5382C38.618 60.5464 38.887 60.5513 39.0826 60.5513C39.2782 60.5513 39.4217 60.5545 39.5114 60.5627C39.601 60.5708 39.6874 60.5757 39.7689 60.5757C40.0298 60.5757 40.2172 60.6491 40.333 60.7974C40.4471 60.9442 40.5041 61.1072 40.5041 61.2865C40.5041 61.4985 40.4389 61.6908 40.3085 61.862C40.1781 62.0332 39.9988 62.1196 39.7689 62.1196C39.3777 62.087 38.9604 62.0674 38.5202 62.0593C38.0784 62.0511 37.5975 62.0462 37.0758 62.0462C36.815 62.0462 36.5493 62.0544 36.2803 62.0707C36.0113 62.087 35.7212 62.1114 35.4114 62.144C35.4277 62.2582 35.4359 62.369 35.4359 62.475L35.4359 62.806C35.4359 63.4108 35.3299 64.0629 35.1164 64.7656C34.9028 65.4682 34.6028 66.1154 34.21 66.7121C33.8187 67.3072 33.3378 67.8044 32.7656 68.2055C32.1934 68.6049 31.5413 68.8054 30.8061 68.8054C30.0709 68.8054 29.427 68.6343 28.8711 68.2919C28.3168 67.9495 27.8473 67.48 27.4626 66.8833C27.0795 66.2883 26.7942 65.5856 26.6067 64.7786C26.4193 63.97 26.3247 63.0929 26.3247 62.1457C26.3247 61.4267 26.385 60.7094 26.5073 59.9904C26.6296 59.2715 26.835 58.6308 27.1202 58.0683C27.4055 57.5042 27.7674 57.0478 28.2092 56.6972C28.651 56.3467 29.189 56.1707 29.8247 56.1707C30.379 56.1707 30.8778 56.2359 31.3196 56.3663C31.7598 56.4967 32.1559 56.6646 32.508 56.8684C32.8585 57.0738 33.1683 57.3102 33.4372 57.5792C33.7062 57.8482 33.9393 58.1221 34.135 58.3993C34.5914 59.053 34.9256 59.7948 35.1392 60.6279L35.1424 60.623ZM29.1433 62.312C29.7139 62.0332 30.392 61.7723 31.1745 61.5278C31.9587 61.2833 32.7819 61.0713 33.6475 60.892C33.5334 60.5496 33.3851 60.2024 33.2058 59.8519C33.0264 59.5013 32.8047 59.1867 32.5439 58.9095C32.2831 58.6324 31.9815 58.4042 31.6375 58.2248C31.2952 58.0439 30.9039 57.9558 30.4638 57.9558L30.1703 57.9803C29.6813 58.0292 29.2835 58.1596 28.9819 58.3715C28.6787 58.5835 28.4423 58.8623 28.2728 59.2046C28.1016 59.547 27.9859 59.948 27.9288 60.4045C27.8718 60.861 27.844 61.3436 27.844 61.849C27.844 62.3054 27.8685 62.7554 27.9174 63.1956C28.2271 62.8858 28.6363 62.5924 29.1417 62.3136L29.1433 62.312ZM28.4815 64.9563C28.4652 65.0215 28.457 65.1193 28.457 65.2498C28.457 65.478 28.5222 65.7225 28.6526 65.9834C28.783 66.2442 28.9542 66.4855 29.1661 66.7056C29.3781 66.9257 29.6193 67.1083 29.8883 67.2567C30.1573 67.405 30.4393 67.4784 30.7328 67.4784C31.2397 67.4784 31.6962 67.3186 32.1037 67.0007C32.5113 66.6828 32.8504 66.2915 33.1194 65.8253C33.3883 65.3606 33.597 64.8617 33.7437 64.3319C33.8904 63.8021 33.9638 63.3162 33.9638 62.8744L33.9638 62.6299C33.9638 62.5484 33.9557 62.4668 33.9393 62.3853C33.3036 62.5158 32.6743 62.6641 32.0548 62.8271C31.4354 62.9902 30.8713 63.1777 30.366 63.3896C29.8606 63.6015 29.44 63.8396 29.1058 64.1004C28.7716 64.3612 28.563 64.6482 28.4815 64.9563Z" fill="#1D1D1B"/>
<path d="M48.7301 53.7431C47.8156 54.2338 47.0201 54.7441 46.3419 55.274C45.6637 55.8038 45.0361 56.3597 44.4574 56.9385C43.877 57.5189 43.3146 58.1123 42.7685 58.7253C42.2208 59.3367 41.6208 59.9692 40.9688 60.623C41.36 60.8023 41.7366 61.0517 42.0952 61.3696C42.4555 61.6892 42.8011 62.0315 43.1353 62.3983C43.4695 62.7652 43.8004 63.1418 44.1265 63.5249C44.4525 63.9096 44.7916 64.252 45.1437 64.5536C45.4942 64.8568 45.861 65.1046 46.2457 65.3019C46.6288 65.4975 47.0331 65.5954 47.4586 65.5954C47.9476 65.5954 48.4448 65.3916 48.9518 64.984C49.4572 64.5764 49.956 64.0939 50.4451 63.5396C50.9341 62.9853 51.3922 62.4261 51.8161 61.862C52.2399 61.2995 52.4665 60.9555 52.7779 60.6458C52.9996 60.2822 53.2018 59.979 53.3485 59.979C53.5278 59.979 53.6598 60.4616 53.7739 60.6262C53.8881 60.7892 53.9451 60.9865 53.9451 61.2131C53.9451 61.4577 53.8799 61.6696 53.7495 61.8489L53.5539 62.1424C53.2604 62.55 52.8888 63.0407 52.4405 63.6113C51.9905 64.1819 51.5015 64.7248 50.9716 65.2399C50.4418 65.7535 49.8745 66.1953 49.2697 66.5621C48.6665 66.9289 48.0617 67.1132 47.4586 67.1132C46.8554 67.1132 46.2832 67.0072 45.7925 66.7952C45.3035 66.5833 44.8584 66.3127 44.459 65.9866C44.058 65.6606 43.6879 65.297 43.3456 64.8976C43.0016 64.4965 42.6642 64.1102 42.3284 63.7352C41.9942 63.3602 41.6469 63.0211 41.2883 62.7195C40.928 62.4163 40.5368 62.2011 40.1129 62.0707C40.0477 63.3276 39.9939 64.6204 39.9532 65.9508C39.9124 67.2811 39.8912 68.7386 39.8912 70.3216C39.8912 70.8759 39.8994 71.3421 39.9157 71.7187C39.932 72.0937 40.0053 72.4931 40.1374 72.9186C40.152 72.9675 40.1618 73.0409 40.1618 73.1404C40.1618 73.3849 40.0836 73.5724 39.9287 73.7028C39.7738 73.8332 39.6059 73.8984 39.4266 73.8984C39.1821 73.8984 38.9897 73.7468 38.8511 73.4452C38.7126 73.1436 38.6099 72.7964 38.5447 72.4051C38.4795 72.0138 38.4387 71.6177 38.4224 71.2166C38.4061 70.8172 38.3979 70.5188 38.3979 70.3232C38.3979 68.6587 38.4191 67.136 38.4599 65.7568C38.5006 64.3775 38.561 63.026 38.6425 61.7055C38.5121 61.575 38.4469 61.4202 38.4469 61.2392C38.4469 61.0582 38.5284 60.8479 38.6914 60.6034L38.7892 58.8883C38.8707 57.5009 38.9359 56.0598 38.9848 54.5664C39.0337 53.0731 39.0582 51.4281 39.0582 49.6331C39.0582 48.5066 39.0451 47.4779 39.0207 46.5486C38.9962 45.6177 38.9718 44.7031 38.9473 43.8065C38.9229 42.9098 38.9033 41.9789 38.8854 41.0154C38.8691 40.0519 38.8609 38.9824 38.8609 37.8086C38.8609 37.5298 38.9392 37.3261 39.094 37.1956C39.2489 37.0652 39.4152 37 39.5961 37C39.7771 37 39.9466 37.0652 40.1097 37.1956C40.2727 37.3261 40.3542 37.5298 40.3542 37.8086C40.3542 38.9824 40.3623 40.0535 40.3786 41.0154C40.3949 41.9789 40.4145 42.9098 40.439 43.8065C40.4634 44.7031 40.4879 45.6177 40.5123 46.5486C40.5368 47.4779 40.5482 48.5066 40.5482 49.6331C40.5482 51.4933 40.5205 53.1872 40.4634 54.7131C40.4063 56.2391 40.3363 57.721 40.2564 59.1573C40.8758 58.5541 41.4464 57.9493 41.9697 57.3461C42.493 56.7429 43.0391 56.156 43.6097 55.5837C44.1819 55.0131 44.8062 54.4621 45.4828 53.9306C46.1593 53.4008 46.9548 52.9068 47.8694 52.4503C48.0161 52.4014 48.1547 52.3769 48.2851 52.3769C48.5459 52.3769 48.7529 52.4552 48.9094 52.6101C49.0643 52.7649 49.1426 52.941 49.1426 53.1366C49.1426 53.4154 49.004 53.6192 48.7269 53.748L48.7301 53.7431Z" fill="#1D1D1B"/>
<path d="M52.5484 61.0812C52.8598 60.804 52.33 61.1757 52.5892 60.8317C52.9869 60.3068 53.6651 59.2536 53.9439 58.9585C53.8624 58.6651 53.8053 58.3749 53.7727 58.0896C53.7401 57.8043 53.7238 57.4978 53.7238 57.1717C53.7238 56.8457 53.7646 56.4577 53.8461 55.9588C53.9276 55.4616 54.0449 54.979 54.2014 54.5144C54.3563 54.0497 54.5356 53.6503 54.741 53.3145C54.9464 52.9786 55.3051 52.7341 55.517 52.6134C56.6581 51.9662 57.6086 52.0053 57.9851 52.0053C58.6372 52.0053 59.2339 52.2254 59.7718 52.6672C60.3098 53.1074 60.7711 53.647 61.1542 54.2829C61.5373 54.9187 61.8356 55.5855 62.0476 56.2783C62.2595 56.9712 62.3655 57.5728 62.3655 58.0782C62.3655 58.683 62.3573 59.1346 62.341 59.4362C62.3247 59.7395 62.3003 59.9547 62.2676 60.0851C62.2676 60.4128 62.3361 60.7421 62.4763 61.0763C62.6149 61.4105 62.8024 61.7121 63.0387 61.9827C63.2751 62.2534 63.5376 62.4702 63.8229 62.6316C64.1081 62.7946 64.3983 62.8761 64.6917 62.8761C65.052 62.8761 65.3536 62.7702 65.5981 62.5582C65.8427 62.3463 66.0709 62.1099 66.2844 61.8474C66.4964 61.5866 66.705 61.3502 66.9088 61.1382C67.1126 60.9263 67.3539 60.8187 67.631 60.8187C67.8429 60.8187 68.0059 60.8807 68.1217 61.0029C68.2358 61.1252 68.2928 61.2687 68.2928 61.4317C68.2928 61.6925 68.1787 61.8882 67.9505 62.0186C67.4614 62.8028 66.9463 63.3766 66.4083 63.7451C65.8687 64.1119 65.1841 64.2961 64.351 64.2961L64.1799 64.2961C63.9353 64.2961 63.6533 64.2195 63.3354 64.063C63.0159 63.9081 62.7029 63.7125 62.3932 63.4761C62.0834 63.2397 61.8063 62.9903 61.5618 62.7294C61.3172 62.4686 61.1461 62.2305 61.0483 62.0186C60.7695 62.1653 60.525 62.3121 60.313 62.4604C60.1011 62.6071 59.8859 62.7376 59.6659 62.8517C59.4442 62.9658 59.2094 63.0555 58.9551 63.1207C58.7024 63.1859 58.4041 63.2201 58.0617 63.2201C57.7015 63.2201 57.3526 63.1468 57.0086 62.9984C56.6663 62.8517 56.3468 62.6642 56.055 62.436C55.7615 62.2077 55.4909 61.942 55.2464 61.6404C55.0019 61.3388 54.7981 61.0323 54.6351 60.7225C54.5356 60.8692 54.4134 61.0258 54.2683 61.1888C54.1216 61.3518 53.714 61.9909 53.551 62.1392C53.388 62.2876 53.4776 61.9208 53.313 62.0088C53.15 62.0985 53.0033 62.1441 52.8712 62.1441C52.6919 62.1441 52.5338 62.0757 52.3936 61.9371C52.255 61.7985 52.1865 61.6387 52.1865 61.4594C52.1865 61.3127 52.3577 61.2654 52.5533 61.0844L52.5484 61.0812ZM55.292 57.0495C55.292 57.3592 55.3524 57.7684 55.4746 58.2738C55.5969 58.7808 55.7844 59.2781 56.0387 59.7688C56.2914 60.2579 56.6011 60.6785 56.9695 61.029C57.3363 61.3795 57.7651 61.5556 58.2557 61.5556C58.6633 61.5556 59.0219 61.4741 59.3317 61.3111C59.6414 61.148 59.899 60.9312 60.1028 60.6622C60.3065 60.3932 60.4581 60.0867 60.5559 59.7443C60.6538 59.4003 60.7027 59.0515 60.7027 58.6912C60.7027 58.3309 60.6489 57.8353 60.5445 57.2467C60.4386 56.6598 60.2658 56.0843 60.031 55.5203C59.7946 54.9562 59.4963 54.4752 59.1377 54.0758C58.7774 53.6764 58.3454 53.4759 57.84 53.4759C57.4488 53.4759 57.0967 53.5981 56.7869 53.8427C56.4772 54.0872 56.2115 54.3888 55.9914 54.7491C55.7713 55.1078 55.6001 55.4958 55.4779 55.9115C55.3556 56.3272 55.2953 56.7071 55.2953 57.0495L55.292 57.0495Z" fill="#1D1D1B"/>
<path d="M66.5157 61.5784C66.827 61.3012 67.6144 60.178 67.8524 59.8193C68.1345 59.397 68.2274 59.3025 68.3399 58.9585C68.2584 58.665 68.2013 58.3748 68.1687 58.0895C68.1361 57.8042 68.1198 57.4978 68.1198 57.1717C68.1198 56.8456 68.1605 56.4576 68.242 55.9588C68.3236 55.4615 68.4409 54.9789 68.5974 54.5143C68.7523 54.0497 68.9316 53.6503 69.137 53.3144C69.3424 52.9786 69.7842 52.6101 69.988 52.4764C71.0199 51.7966 72.0062 52.0053 72.3811 52.0053C73.0332 52.0053 73.6298 52.2254 74.1678 52.6672C74.7058 53.1074 75.1671 53.647 75.5502 54.2828C75.9333 54.9186 76.2316 55.5854 76.4436 56.2783C76.6555 56.9712 76.7614 57.5727 76.7614 58.0781C76.7614 58.683 76.7533 59.1346 76.737 59.4362C76.7207 59.7394 76.6962 59.9546 76.6636 60.085C76.6636 60.4127 76.7321 60.742 76.8723 61.0762C77.0109 61.4105 77.1983 61.7121 77.4347 61.9827C77.6711 62.2533 77.9336 62.4701 78.2188 62.6315C78.5041 62.7946 78.7943 62.8761 79.0877 62.8761C79.448 62.8761 79.7496 62.7701 79.9941 62.5582C80.2387 62.3462 80.4669 62.1099 80.6804 61.8474C80.8924 61.5865 81.101 61.3501 81.3048 61.1382C81.5086 60.9263 81.7498 60.8187 82.027 60.8187C82.2389 60.8187 82.4019 60.8806 82.5177 61.0029C82.6318 61.1252 82.6888 61.2686 82.6888 61.4317C82.6888 61.6925 82.5747 61.8881 82.3465 62.0186C81.8574 62.8027 81.3423 63.3766 80.8043 63.745C80.2647 64.1119 79.5801 64.2961 78.747 64.2961L78.5759 64.2961C78.3313 64.2961 78.0493 64.2195 77.7314 64.0629C77.4119 63.9081 77.0989 63.7124 76.7892 63.476C76.4794 63.2396 76.2023 62.9902 75.9578 62.7294C75.7132 62.4685 75.5421 62.2305 75.4442 62.0186C75.1655 62.1653 74.921 62.312 74.709 62.4604C74.4971 62.6071 74.2819 62.7375 74.0618 62.8516C73.8401 62.9658 73.6054 63.0554 73.3511 63.1206C73.0984 63.1858 72.8001 63.2201 72.4577 63.2201C72.0975 63.2201 71.7486 63.1467 71.4046 62.9984C71.0623 62.8516 70.7428 62.6642 70.451 62.4359C70.1575 62.2077 69.8869 61.9419 69.6424 61.6403C69.3979 61.3387 69.1941 61.0322 69.0311 60.7225C68.9316 60.8692 68.8094 61.0257 68.6643 61.1887C68.5176 61.3518 67.81 62.3006 67.647 62.4473C67.484 62.594 67.872 61.9191 67.709 62.0071C67.546 62.0968 67.3992 62.1425 67.2672 62.1425C67.0879 62.1425 66.9297 62.074 66.7895 61.9354C66.651 61.7968 66.4488 62.1588 66.4488 61.9794C66.4488 61.8327 66.3233 61.761 66.5189 61.58L66.5157 61.5784ZM69.688 57.0494C69.688 57.3592 69.7483 57.7684 69.8706 58.2738C69.9929 58.7808 70.1804 59.278 70.4347 59.7688C70.6873 60.2578 70.9971 60.6785 71.3655 61.029C71.7323 61.3795 72.161 61.5556 72.6517 61.5556C73.0593 61.5556 73.4179 61.474 73.7277 61.311C74.0374 61.148 74.295 60.9311 74.4987 60.6622C74.7025 60.3932 74.8541 60.0867 74.9519 59.7443C75.0497 59.4003 75.0986 59.0514 75.0986 58.6911C75.0986 58.3308 75.0449 57.8352 74.9405 57.2467C74.8346 56.6598 74.6618 56.0843 74.427 55.5202C74.1906 54.9561 73.8923 54.4752 73.5337 54.0758C73.1734 53.6763 72.7414 53.4758 72.236 53.4758C71.8448 53.4758 71.4927 53.5981 71.1829 53.8426C70.8732 54.0872 70.6075 54.3888 70.3874 54.7491C70.1673 55.1077 69.9961 55.4958 69.8739 55.9115C69.7516 56.3272 69.6913 56.7071 69.6913 57.0494L69.688 57.0494Z" fill="#1D1D1B"/>
<path d="M82.5535 68.0456C81.9503 66.3811 81.5411 65.2594 81.158 63.6585C80.7749 62.0591 80.4766 60.5218 80.2647 59.0431C80.0528 57.5661 79.9093 56.1787 79.8359 54.881C79.7626 53.5832 79.7251 52.4111 79.7251 51.3677C79.7251 50.5199 79.7496 49.6494 79.7985 48.7592C79.8474 47.8707 79.9387 46.9105 80.0674 45.8834C80.1163 45.4579 80.2076 44.99 80.3364 44.4748C80.4668 43.9613 80.6396 43.4819 80.8499 43.0418C81.0619 42.6 81.3162 42.2331 81.6096 41.9397C81.903 41.6462 82.2372 41.4995 82.6138 41.4995C82.6937 41.4995 82.7882 41.5158 82.8942 41.5484C83.0002 41.581 83.1192 41.6218 83.2496 41.6707C83.7386 41.9332 84.1022 42.2462 84.3385 42.613C84.5749 42.9798 84.7461 43.3923 84.8521 43.8504C84.958 44.3069 85.0232 44.7976 85.0477 45.3193C85.0721 45.8426 85.108 46.3888 85.1585 46.9594C85.1911 47.4338 85.2107 47.8984 85.2189 48.3549C85.227 48.8114 85.2319 49.2613 85.2319 49.7015C85.2319 50.8607 85.1716 51.9578 85.0493 52.9947C84.9254 54.0316 84.7461 55.0473 84.5097 56.0434C84.2733 57.0378 83.9864 58.0421 83.6522 59.0545C83.318 60.0669 82.9382 61.1201 82.5144 62.214C82.6285 62.9477 82.7622 63.6634 82.9186 64.3562C83.0735 65.0491 83.2382 65.6621 83.4077 66.1936C83.5789 66.7234 83.7517 67.1571 83.9212 67.4897C83.9261 67.4978 83.9294 67.5076 83.9343 67.5157C84.1087 67.8483 84.4657 68.0521 84.839 68.0228C85.5889 67.9641 86.1741 67.8842 86.7023 67.6038C87.4913 67.1848 87.8076 66.7756 88.1989 66.1072C88.5901 65.4387 88.8949 64.3432 89.221 63.5101C89.547 62.6787 89.9399 61.8456 90.3964 61.0125C90.4616 60.8821 90.548 60.7957 90.6539 60.7549C90.7599 60.7142 90.8707 60.693 90.9849 60.693C91.1479 60.693 91.2995 60.7468 91.4381 60.8527C91.5766 60.9587 91.6451 61.1022 91.6451 61.2815C91.6451 61.3467 91.6206 61.4364 91.5717 61.5505C91.0175 62.514 90.7795 63.4889 90.3719 64.4361C89.9644 65.3833 89.7492 66.2751 89.2829 67.0348C88.8183 67.7945 88.4059 68.4287 87.3218 68.996C86.6241 69.3612 85.7291 69.534 84.7168 69.534C83.8022 69.534 83.0817 69.1835 82.5502 68.044L82.5535 68.0456ZM81.6601 46.0301C81.5297 47.0425 81.4368 47.9848 81.3781 48.8587C81.3211 49.7309 81.2933 50.5851 81.2933 51.4166C81.2933 52.6409 81.3537 53.8571 81.4759 55.0652C81.5982 56.2732 81.7743 57.5954 82.0025 59.0317C82.5421 57.4976 82.9659 55.9928 83.2757 54.5141C83.5854 53.0371 83.7419 51.4247 83.7419 49.6787C83.7419 48.487 83.7174 47.4925 83.6685 46.692C83.6196 45.8932 83.5495 45.2573 83.4615 44.7829C83.3718 44.3101 83.2691 43.9759 83.155 43.7787C83.0409 43.583 82.9187 43.4852 82.7882 43.4852C82.6578 43.4852 82.5225 43.5879 82.3839 43.7917C82.2454 43.9955 82.1231 44.2335 82.0172 44.5009C81.9112 44.7699 81.8248 45.0405 81.7596 45.3095C81.6944 45.5785 81.6618 45.7872 81.6618 45.9339L81.6618 46.0334L81.6601 46.0301Z" fill="#1D1D1B"/>
<path d="M94.4084 50.4124C93.9193 50.4124 93.4906 50.4255 93.1221 50.4499C92.7537 50.4744 92.4032 50.5037 92.069 50.5347C91.7349 50.5673 91.399 50.6081 91.0648 50.6586C90.7307 50.7075 90.3427 50.7564 89.9025 50.8053C89.4461 50.8053 89.0124 50.7809 88.6049 50.732L88.6049 51.614L88.4582 54.2583C88.5413 55.2544 88.6913 56.2831 88.9114 57.3428C89.1314 58.4041 89.4542 59.3676 89.8781 60.2333C90.3035 61.099 90.8366 61.8131 91.4822 62.3755C92.1261 62.9396 92.9151 63.22 93.8443 63.22C94.4964 63.22 95.1224 63.1255 95.7174 62.938C96.3124 62.7505 96.9009 62.5255 97.4797 62.2647C98.06 62.0038 98.6338 61.7348 99.206 61.4561C99.7766 61.1789 100.373 60.9425 100.993 60.7469C101.107 60.6817 101.221 60.6491 101.335 60.6491C101.531 60.6491 101.69 60.7338 101.813 60.9066C101.935 61.0778 101.997 61.2702 101.997 61.4821C101.997 61.8424 101.826 62.0788 101.483 62.1929C100.848 62.4212 100.213 62.6869 99.5859 62.9885C98.9566 63.2901 98.3257 63.5836 97.6883 63.8705C97.0525 64.1558 96.4021 64.3971 95.7419 64.5927C95.08 64.7884 94.3904 64.8862 93.6732 64.8862C93.1988 64.8862 92.7456 64.8324 92.3136 64.7264C91.8816 64.6205 91.4773 64.4281 91.1023 64.1509C90.2041 63.5966 89.4787 62.8826 88.9228 62.0087C88.3685 61.1365 87.9349 60.2056 87.6251 59.2177C87.3154 58.2297 87.1067 57.2417 87.0008 56.2554C86.8948 55.2675 86.841 54.3822 86.841 53.5997C86.841 53.4203 86.8443 53.2687 86.854 53.1464C86.8638 53.0242 86.8704 52.8644 86.8785 52.6688C86.8867 52.4731 86.8948 52.2123 86.903 51.8846C86.9111 51.5585 86.916 51.0939 86.916 50.4891C86.6878 50.4565 86.4269 50.4353 86.1319 50.4271C85.8384 50.419 85.5613 50.3945 85.3005 50.3538C85.0396 50.313 84.8196 50.2282 84.6386 50.0962C84.4593 49.9657 84.3696 49.762 84.3696 49.4848C84.3696 49.2729 84.4267 49.0772 84.5408 48.8963C84.6549 48.7169 84.8342 48.6273 85.0804 48.6273C85.4064 48.6273 85.7211 48.6436 86.0226 48.6762C86.3259 48.7088 86.6226 48.7495 86.916 48.7985L86.766 42.349L86.7937 42.3832C86.7774 42.3832 86.7693 42.3751 86.7693 42.3588C86.7693 42.1306 86.8475 41.9594 87.0024 41.8453C87.1573 41.7311 87.3333 41.6741 87.5289 41.6741C87.7572 41.6741 87.9691 41.7523 88.1647 41.9072C88.3603 42.0621 88.4582 42.3034 88.4582 42.6294L88.4582 49.0446C88.7369 49.0772 88.9896 49.0984 89.2178 49.1066C89.4477 49.1147 89.6743 49.1196 89.9041 49.1196L96.0255 48.6289C96.2538 48.6941 96.4298 48.8164 96.5521 48.9957C96.6743 49.1767 96.7363 49.3707 96.7363 49.5843C96.7363 49.8288 96.6548 50.0098 96.4918 50.1239C96.3287 50.238 96.125 50.3195 95.8804 50.3684C95.6343 50.4173 95.3783 50.4369 95.1094 50.4288C94.8404 50.4206 94.6073 50.4157 94.4116 50.4157L94.4084 50.4124Z" fill="#1D1D1B"/>
<path d="M20.1512 80.9821C30.2356 79.6062 40.3461 78.4128 50.4729 77.4036C60.5409 76.3994 70.627 75.5777 80.7244 74.937C86.4138 74.5767 92.1064 74.2735 97.8023 74.0273C98.4136 74.0012 98.4169 73.0459 97.8023 73.0736C87.5908 73.5154 77.3874 74.1398 67.2003 74.9501C57.0637 75.7571 46.9402 76.7483 36.8395 77.9205C31.186 78.5775 25.5374 79.2915 19.8985 80.0627C19.641 80.0985 19.5057 80.4246 19.566 80.6496C19.6393 80.9251 19.8985 81.018 20.1529 80.9821L20.1512 80.9821Z" fill="#1D1D1B"/>
</svg>
