<svg width="118" height="118" viewBox="0 0 118 118" fill="none" xmlns="http://www.w3.org/2000/svg">
<circle cx="59" cy="59" r="59" fill="#FFF96A"/>
<path d="M22.1153 64.925C21.5105 63.2605 21.0182 61.6286 20.6335 60.0276C20.2504 58.4283 19.952 56.8909 19.7401 55.4122C19.5282 53.9352 19.3847 52.5478 19.313 51.2501C19.2396 49.9524 19.2021 48.7802 19.2021 47.7368C19.2021 46.8891 19.2266 46.0185 19.2755 45.1284C19.3244 44.2398 19.4141 43.2796 19.5445 42.2525C19.5934 41.827 19.6831 41.3591 19.8135 40.8439C19.9439 40.3288 20.1151 39.8511 20.327 39.4109C20.5389 38.9691 20.7916 38.6023 21.0867 38.3088C21.3801 38.0154 21.7143 37.8687 22.0909 37.8687C22.1724 37.8687 22.2669 37.885 22.3729 37.9176C22.4788 37.9502 22.5962 37.9909 22.7283 38.0398C23.2173 38.3023 23.5809 38.6153 23.8189 38.9821C24.0552 39.349 24.2264 39.7614 24.3324 40.2195C24.4383 40.676 24.5035 41.1667 24.528 41.6884C24.5524 42.2118 24.5899 42.7579 24.6388 43.3285C24.6715 43.8029 24.6926 44.2676 24.7008 44.724C24.7089 45.1805 24.7138 45.6305 24.7138 46.0707C24.7138 47.2298 24.6519 48.327 24.5296 49.3639C24.4074 50.4007 24.2264 51.4164 23.99 52.4125C23.7537 53.407 23.4667 54.4112 23.1342 55.4237C22.8 56.4361 22.4202 57.4892 21.9963 58.5832C22.1104 59.3168 22.2441 60.0325 22.4006 60.7254C22.5555 61.4182 22.7185 62.0312 22.8896 62.5627C23.0608 63.0926 23.232 63.5262 23.4032 63.8588C23.5743 64.193 23.7243 64.3772 23.8564 64.4098C24.8198 64.4098 25.5909 64.1979 26.1696 63.774C26.7483 63.3501 27.2358 62.8024 27.627 62.1339C28.0182 61.4655 28.3769 60.714 28.7046 59.8809C29.0306 59.0494 29.4218 58.2163 29.8783 57.3833C29.9435 57.2528 30.0299 57.1664 30.1359 57.1257C30.2418 57.0849 30.3527 57.0637 30.4668 57.0637C30.6298 57.0637 30.7814 57.1175 30.92 57.2235C31.0586 57.3295 31.1287 57.4729 31.1287 57.6523C31.1287 57.7175 31.1042 57.8071 31.0553 57.9213C30.501 58.8848 30.0185 59.8401 29.6109 60.7857C29.2034 61.7329 28.7665 62.5855 28.3019 63.3436C27.8357 64.1033 27.2895 64.7196 26.6603 65.1924C26.0327 65.6652 25.211 65.9032 24.2003 65.9032C23.2858 65.9032 22.593 65.5755 22.1186 64.9234L22.1153 64.925ZM21.1356 42.3992C21.0051 43.4117 20.9122 44.354 20.8552 45.2278C20.7981 46.1 20.7688 46.9543 20.7688 47.7857C20.7688 49.0101 20.8307 50.2263 20.953 51.4343C21.0752 52.6424 21.2513 53.9645 21.4795 55.4008C22.0191 53.8667 22.443 52.362 22.7527 50.8833C23.0625 49.4062 23.2173 47.7939 23.2173 46.0478C23.2173 44.8561 23.1929 43.8616 23.144 43.0611C23.0951 42.2623 23.025 41.6265 22.9353 41.1521C22.8456 40.6793 22.7429 40.3451 22.6304 40.1478C22.5163 39.9522 22.3941 39.8544 22.2637 39.8544C22.1332 39.8544 21.9979 39.9571 21.8594 40.1608C21.7192 40.3646 21.5969 40.6027 21.4926 40.87C21.3866 41.139 21.3002 41.4097 21.235 41.6786C21.1698 41.9476 21.1356 42.1563 21.1356 42.3031L21.1356 42.4025L21.1356 42.3992Z" fill="#1D1D1B"/>
<path d="M37.3446 56.9921C37.6543 56.9432 37.9559 56.9106 38.251 56.8943C38.546 56.878 38.8313 56.8699 39.1068 56.8699C39.6774 56.8862 40.1355 56.8976 40.4778 56.9074C40.8202 56.9155 41.0891 56.9204 41.2848 56.9204C41.4804 56.9204 41.6238 56.9237 41.7135 56.9318C41.8032 56.94 41.8896 56.9448 41.9711 56.9448C42.2319 56.9448 42.4194 57.0182 42.5351 57.1666C42.6492 57.3133 42.7063 57.4763 42.7063 57.6557C42.7063 57.8676 42.6411 58.06 42.5107 58.2312C42.3803 58.4023 42.2009 58.4887 41.9711 58.4887C41.5798 58.4561 41.1625 58.4366 40.7223 58.4284C40.2806 58.4203 39.7997 58.4154 39.278 58.4154C39.0172 58.4154 38.7514 58.4235 38.4825 58.4398C38.2135 58.4561 37.9233 58.4806 37.6136 58.5132C37.6299 58.6273 37.638 58.7382 37.638 58.8441L37.638 59.1751C37.638 59.7799 37.5321 60.432 37.3185 61.1347C37.1049 61.8374 36.805 62.4846 36.4121 63.0813C36.0209 63.6763 35.54 64.1736 34.9678 64.5746C34.3956 64.974 33.7435 65.1746 33.0083 65.1746C32.273 65.1746 31.6291 65.0034 31.0732 64.661C30.519 64.3187 30.0495 63.8491 29.6647 63.2525C29.2816 62.6574 28.9964 61.9547 28.8089 61.1477C28.6214 60.3391 28.5269 59.462 28.5269 58.5148C28.5269 57.7959 28.5872 57.0785 28.7094 56.3596C28.8317 55.6406 29.0371 54.9999 29.3224 54.4375C29.6077 53.8734 29.9696 53.4169 30.4114 53.0664C30.8531 52.7159 31.3911 52.5398 32.0269 52.5398C32.5812 52.5398 33.08 52.605 33.5218 52.7354C33.9619 52.8659 34.3581 53.0338 34.7102 53.2376C35.0607 53.443 35.3704 53.6794 35.6394 53.9484C35.9084 54.2174 36.1415 54.4913 36.3371 54.7684C36.7936 55.4222 37.1278 56.1639 37.3413 56.997L37.3446 56.9921ZM31.3455 58.6811C31.916 58.4023 32.5942 58.1415 33.3767 57.8969C34.1608 57.6524 34.9841 57.4405 35.8497 57.2611C35.7356 56.9188 35.5872 56.5715 35.4079 56.221C35.2286 55.8705 35.0069 55.5558 34.7461 55.2787C34.4852 55.0015 34.1836 54.7733 33.8397 54.594C33.4973 54.413 33.1061 54.325 32.6659 54.325L32.3725 54.3494C31.8834 54.3983 31.4857 54.5288 31.1841 54.7407C30.8809 54.9526 30.6445 55.2314 30.4749 55.5738C30.3038 55.9161 30.188 56.3172 30.131 56.7737C30.0739 57.2301 30.0462 57.7127 30.0462 58.2181C30.0462 58.6746 30.0707 59.1246 30.1196 59.5647C30.4293 59.255 30.8385 58.9615 31.3438 58.6827L31.3455 58.6811ZM30.6836 61.3254C30.6673 61.3907 30.6592 61.4885 30.6592 61.6189C30.6592 61.8471 30.7244 62.0917 30.8548 62.3525C30.9852 62.6134 31.1564 62.8547 31.3683 63.0748C31.5802 63.2948 31.8215 63.4774 32.0905 63.6258C32.3594 63.7741 32.6415 63.8475 32.9349 63.8475C33.4419 63.8475 33.8983 63.6877 34.3059 63.3698C34.7134 63.0519 35.0525 62.6607 35.3215 62.1944C35.5905 61.7298 35.7992 61.2309 35.9459 60.701C36.0926 60.1712 36.166 59.6854 36.166 59.2436L36.166 58.999C36.166 58.9175 36.1578 58.836 36.1415 58.7545C35.5057 58.8849 34.8765 59.0333 34.257 59.1963C33.6375 59.3593 33.0735 59.5468 32.5681 59.7587C32.0627 59.9707 31.6422 60.2087 31.308 60.4695C30.9738 60.7304 30.7651 61.0173 30.6836 61.3254Z" fill="#1D1D1B"/>
<path d="M50.9323 50.1123C50.0177 50.603 49.2222 51.1133 48.544 51.6431C47.8659 52.1729 47.2383 52.7289 46.6595 53.3076C46.0792 53.888 45.5168 54.4814 44.9707 55.0944C44.4229 55.7058 43.823 56.3383 43.1709 56.9921C43.5622 57.1714 43.9387 57.4209 44.2974 57.7388C44.6577 58.0583 45.0033 58.4007 45.3374 58.7675C45.6716 59.1343 46.0026 59.5109 46.3286 59.894C46.6546 60.2788 46.9937 60.6211 47.3458 60.9227C47.6963 61.226 48.0631 61.4738 48.4479 61.671C48.831 61.8667 49.2352 61.9645 49.6607 61.9645C50.1498 61.9645 50.647 61.7607 51.154 61.3531C51.6593 60.9456 52.1582 60.463 52.6472 59.9087C53.1363 59.3544 53.5944 58.7952 54.0182 58.2311C54.4421 57.6687 54.6687 57.3247 54.98 57.0149C55.2018 56.6514 55.4039 56.3481 55.5506 56.3481C55.7299 56.3481 55.862 56.8307 55.9761 56.9954C56.0902 57.1584 56.1473 57.3557 56.1473 57.5823C56.1473 57.8268 56.0821 58.0387 55.9516 58.2181L55.756 58.5115C55.4626 58.9191 55.0909 59.4098 54.6426 59.9804C54.1927 60.551 53.7036 61.0939 53.1738 61.6091C52.644 62.1226 52.0767 62.5644 51.4719 62.9313C50.8687 63.2981 50.2639 63.4823 49.6607 63.4823C49.0576 63.4823 48.4854 63.3763 47.9947 63.1644C47.5056 62.9524 47.0606 62.6818 46.6612 62.3558C46.2601 62.0297 45.8901 61.6661 45.5477 61.2667C45.2038 60.8657 44.8663 60.4793 44.5305 60.1043C44.1963 59.7294 43.8491 59.3903 43.4904 59.0887C43.1302 58.7854 42.7389 58.5702 42.3151 58.4398C42.2499 59.6968 42.1961 60.9896 42.1553 62.3199C42.1145 63.6502 42.0934 65.1077 42.0934 66.6907C42.0934 67.245 42.1015 67.7113 42.1178 68.0879C42.1341 68.4628 42.2075 68.8623 42.3395 69.2878C42.3542 69.3367 42.364 69.41 42.364 69.5095C42.364 69.754 42.2857 69.9415 42.1309 70.0719C41.976 70.2024 41.8081 70.2676 41.6288 70.2676C41.3842 70.2676 41.1919 70.116 41.0533 69.8144C40.9147 69.5128 40.812 69.1655 40.7468 68.7742C40.6816 68.383 40.6409 67.9868 40.6245 67.5857C40.6082 67.1863 40.6001 66.888 40.6001 66.6923C40.6001 65.0278 40.6213 63.5051 40.662 62.1259C40.7028 60.7467 40.7631 59.3952 40.8446 58.0746C40.7142 57.9442 40.649 57.7893 40.649 57.6083C40.649 57.4274 40.7305 57.2171 40.8935 56.9725L40.9913 55.2575C41.0729 53.8701 41.1381 52.4289 41.187 50.9356C41.2359 49.4422 41.2603 47.7972 41.2603 46.0023C41.2603 44.8758 41.2473 43.847 41.2228 42.9178C41.1984 41.9869 41.1739 41.0723 41.1495 40.1756C41.125 39.279 41.1055 38.3481 41.0875 37.3846C41.0712 36.4211 41.0631 35.3516 41.0631 34.1778C41.0631 33.899 41.1413 33.6952 41.2962 33.5648C41.4511 33.4344 41.6173 33.3691 41.7983 33.3691C41.9792 33.3691 42.1488 33.4344 42.3118 33.5648C42.4748 33.6952 42.5563 33.899 42.5563 34.1778C42.5563 35.3516 42.5645 36.4227 42.5808 37.3846C42.5971 38.3481 42.6166 39.279 42.6411 40.1756C42.6656 41.0723 42.69 41.9869 42.7145 42.9178C42.7389 43.847 42.7503 44.8758 42.7503 46.0023C42.7503 47.8625 42.7226 49.5563 42.6656 51.0823C42.6085 52.6082 42.5384 54.0902 42.4585 55.5265C43.078 54.9233 43.6486 54.3184 44.1719 53.7152C44.6951 53.112 45.2413 52.5251 45.8118 51.9529C46.384 51.3823 47.0084 50.8312 47.6849 50.2997C48.3615 49.7699 49.157 49.2759 50.0715 48.8194C50.2182 48.7705 50.3568 48.7461 50.4872 48.7461C50.7481 48.7461 50.9551 48.8243 51.1116 48.9792C51.2665 49.1341 51.3447 49.3102 51.3447 49.5058C51.3447 49.7846 51.2061 49.9884 50.929 50.1171L50.9323 50.1123Z" fill="#1D1D1B"/>
<path d="M54.7506 57.4503C55.0619 57.1732 54.5321 57.5449 54.7913 57.2009C55.1891 56.6759 55.8673 55.6228 56.146 55.3277C56.0645 55.0342 56.0075 54.744 55.9749 54.4587C55.9422 54.1734 55.9259 53.8669 55.9259 53.5409C55.9259 53.2148 55.9667 52.8268 56.0482 52.3279C56.1297 51.8307 56.2471 51.3481 56.4036 50.8835C56.5585 50.4189 56.7378 50.0194 56.9432 49.6836C57.1486 49.3478 57.5072 49.1032 57.7192 48.9826C58.8603 48.3354 59.8107 48.3745 60.1873 48.3745C60.8394 48.3745 61.436 48.5946 61.974 49.0364C62.5119 49.4766 62.9733 50.0162 63.3564 50.652C63.7395 51.2878 64.0378 51.9546 64.2497 52.6475C64.4616 53.3404 64.5676 53.9419 64.5676 54.4473C64.5676 55.0522 64.5595 55.5038 64.5432 55.8054C64.5269 56.1086 64.5024 56.3238 64.4698 56.4542C64.4698 56.7819 64.5383 57.1112 64.6785 57.4454C64.817 57.7796 65.0045 58.0812 65.2409 58.3519C65.4773 58.6225 65.7397 58.8393 66.025 59.0007C66.3103 59.1638 66.6005 59.2453 66.8939 59.2453C67.2542 59.2453 67.5558 59.1393 67.8003 58.9274C68.0448 58.7154 68.273 58.479 68.4866 58.2166C68.6985 57.9557 68.9072 57.7193 69.111 57.5074C69.3147 57.2954 69.556 57.1878 69.8331 57.1878C70.0451 57.1878 70.2081 57.2498 70.3238 57.3721C70.4379 57.4943 70.495 57.6378 70.495 57.8008C70.495 58.0617 70.3809 58.2573 70.1527 58.3877C69.6636 59.1719 69.1485 59.7458 68.6105 60.1142C68.0709 60.481 67.3862 60.6653 66.5532 60.6653L66.382 60.6653C66.1375 60.6653 65.8555 60.5886 65.5376 60.4321C65.2181 60.2773 64.9051 60.0816 64.5953 59.8452C64.2856 59.6088 64.0084 59.3594 63.7639 59.0986C63.5194 58.8377 63.3482 58.5997 63.2504 58.3877C62.9716 58.5345 62.7271 58.6812 62.5152 58.8296C62.3033 58.9763 62.0881 59.1067 61.868 59.2208C61.6463 59.3349 61.4116 59.4246 61.1572 59.4898C60.9046 59.555 60.6062 59.5893 60.2639 59.5893C59.9036 59.5893 59.5548 59.5159 59.2108 59.3675C58.8684 59.2208 58.5489 59.0333 58.2571 58.8051C57.9637 58.5769 57.6931 58.3111 57.4485 58.0095C57.204 57.7079 57.0002 57.4014 56.8372 57.0917C56.7378 57.2384 56.6155 57.3949 56.4704 57.5579C56.3237 57.721 55.9162 58.36 55.7531 58.5084C55.5901 58.6567 55.6798 58.2899 55.5151 58.378C55.3521 58.4676 55.2054 58.5133 55.0734 58.5133C54.894 58.5133 54.7359 58.4448 54.5957 58.3062C54.4571 58.1677 54.3887 58.0079 54.3887 57.8286C54.3887 57.6818 54.5598 57.6345 54.7555 57.4536L54.7506 57.4503ZM57.4942 53.4186C57.4942 53.7284 57.5545 54.1376 57.6768 54.643C57.799 55.15 57.9865 55.6472 58.2408 56.1379C58.4935 56.627 58.8032 57.0476 59.1717 57.3982C59.5385 57.7487 59.9672 57.9247 60.4579 57.9247C60.8654 57.9247 61.2241 57.8432 61.5338 57.6802C61.8436 57.5172 62.1011 57.3003 62.3049 57.0313C62.5087 56.7623 62.6603 56.4558 62.7581 56.1135C62.8559 55.7695 62.9048 55.4206 62.9048 55.0603C62.9048 54.7 62.851 54.2044 62.7467 53.6159C62.6407 53.029 62.4679 52.4535 62.2332 51.8894C61.9968 51.3253 61.6985 50.8444 61.3398 50.445C60.9795 50.0455 60.5475 49.845 60.0422 49.845C59.6509 49.845 59.2988 49.9673 58.9891 50.2118C58.6793 50.4564 58.4136 50.758 58.1935 51.1183C57.9735 51.4769 57.8023 51.8649 57.68 52.2807C57.5578 52.6964 57.4975 53.0762 57.4975 53.4186L57.4942 53.4186Z" fill="#1D1D1B"/>
<path d="M68.7178 57.9475C69.0292 57.6704 69.8166 56.5471 70.0546 56.1884C70.3366 55.7662 70.4295 55.6716 70.542 55.3276C70.4605 55.0342 70.4034 54.744 70.3708 54.4587C70.3382 54.1734 70.3219 53.8669 70.3219 53.5408C70.3219 53.2148 70.3627 52.8268 70.4442 52.3279C70.5257 51.8307 70.6431 51.3481 70.7996 50.8835C70.9544 50.4188 71.1338 50.0194 71.3392 49.6836C71.5446 49.3477 71.9864 48.9793 72.1901 48.8456C73.222 48.1658 74.2083 48.3744 74.5833 48.3744C75.2353 48.3744 75.832 48.5945 76.37 49.0363C76.9079 49.4765 77.3693 50.0161 77.7524 50.652C78.1355 51.2878 78.4338 51.9546 78.6457 52.6474C78.8576 53.3403 78.9636 53.9419 78.9636 54.4473C78.9636 55.0521 78.9554 55.5037 78.9391 55.8053C78.9228 56.1085 78.8984 56.3237 78.8658 56.4542C78.8658 56.7819 78.9343 57.1112 79.0744 57.4454C79.213 57.7796 79.4005 58.0812 79.6369 58.3518C79.8732 58.6225 80.1357 58.8393 80.421 59.0007C80.7063 59.1637 80.9964 59.2452 81.2899 59.2452C81.6502 59.2452 81.9517 59.1393 82.1963 58.9273C82.4408 58.7154 82.669 58.479 82.8826 58.2165C83.0945 57.9557 83.3032 57.7193 83.5069 57.5073C83.7107 57.2954 83.952 57.1878 84.2291 57.1878C84.4411 57.1878 84.6041 57.2498 84.7198 57.372C84.8339 57.4943 84.891 57.6378 84.891 57.8008C84.891 58.0616 84.7769 58.2573 84.5486 58.3877C84.0596 59.1719 83.5444 59.7457 83.0065 60.1142C82.4669 60.481 81.7822 60.6652 80.9492 60.6652L80.778 60.6652C80.5335 60.6652 80.2514 60.5886 79.9336 60.4321C79.614 60.2772 79.301 60.0816 78.9913 59.8452C78.6816 59.6088 78.4044 59.3594 78.1599 59.0985C77.9154 58.8377 77.7442 58.5996 77.6464 58.3877C77.3676 58.5344 77.1231 58.6811 76.9112 58.8295C76.6993 58.9762 76.4841 59.1067 76.264 59.2208C76.0423 59.3349 75.8075 59.4246 75.5532 59.4898C75.3005 59.555 75.0022 59.5892 74.6599 59.5892C74.2996 59.5892 73.9507 59.5159 73.6068 59.3675C73.2644 59.2208 72.9449 59.0333 72.6531 58.8051C72.3597 58.5768 72.0891 58.3111 71.8445 58.0095C71.6 57.7079 71.3962 57.4014 71.2332 57.0916C71.1338 57.2383 71.0115 57.3948 70.8664 57.5579C70.7197 57.7209 70.0122 58.6697 69.8492 58.8165C69.6862 58.9632 70.0741 58.2882 69.9111 58.3763C69.7481 58.466 69.6014 58.5116 69.4693 58.5116C69.29 58.5116 69.1319 58.4431 68.9917 58.3046C68.8531 58.166 68.651 58.5279 68.651 58.3486C68.651 58.2018 68.5255 58.1301 68.7211 57.9491L68.7178 57.9475ZM71.8902 53.4186C71.8902 53.7283 71.9505 54.1375 72.0728 54.6429C72.195 55.1499 72.3825 55.6472 72.6368 56.1379C72.8895 56.627 73.1992 57.0476 73.5677 57.3981C73.9344 57.7486 74.3632 57.9247 74.8539 57.9247C75.2614 57.9247 75.6201 57.8432 75.9298 57.6801C76.2395 57.5171 76.4971 57.3003 76.7009 57.0313C76.9047 56.7623 77.0563 56.4558 77.1541 56.1134C77.2519 55.7694 77.3008 55.4206 77.3008 55.0603C77.3008 54.7 77.247 54.2044 77.1427 53.6158C77.0367 53.0289 76.8639 52.4534 76.6292 51.8893C76.3928 51.3253 76.0945 50.8443 75.7358 50.4449C75.3755 50.0455 74.9435 49.845 74.4382 49.845C74.0469 49.845 73.6948 49.9672 73.3851 50.2118C73.0753 50.4563 72.8096 50.7579 72.5895 51.1182C72.3695 51.4769 72.1983 51.8649 72.076 52.2806C71.9538 52.6963 71.8934 53.0762 71.8934 53.4186L71.8902 53.4186Z" fill="#1D1D1B"/>
<path d="M84.7556 64.4147C84.1525 62.7502 83.7433 61.6286 83.3602 60.0276C82.9771 58.4283 82.6788 56.8909 82.4668 55.4122C82.2549 53.9352 82.1115 52.5478 82.0381 51.2501C81.9647 49.9524 81.9272 48.7802 81.9272 47.7368C81.9272 46.8891 81.9517 46.0185 82.0006 45.1284C82.0495 44.2398 82.1408 43.2796 82.2696 42.2525C82.3185 41.827 82.4098 41.3591 82.5386 40.8439C82.669 40.3304 82.8418 39.8511 83.0521 39.4109C83.264 38.9691 83.5183 38.6023 83.8118 38.3088C84.1052 38.0154 84.4394 37.8687 84.816 37.8687C84.8958 37.8687 84.9904 37.885 85.0963 37.9176C85.2023 37.9502 85.3213 37.9909 85.4517 38.0398C85.9408 38.3023 86.3043 38.6153 86.5407 38.9821C86.7771 39.349 86.9482 39.7614 87.0542 40.2195C87.1602 40.676 87.2254 41.1667 87.2498 41.6884C87.2743 42.2118 87.3101 42.7579 87.3607 43.3285C87.3933 43.8029 87.4129 44.2676 87.421 44.724C87.4292 45.1805 87.434 45.6305 87.434 46.0707C87.434 47.2298 87.3737 48.327 87.2515 49.3639C87.1276 50.4007 86.9482 51.4164 86.7119 52.4125C86.4755 53.407 86.1886 54.4112 85.8544 55.4237C85.5202 56.4361 85.1404 57.4892 84.7165 58.5832C84.8306 59.3168 84.9643 60.0325 85.1208 60.7254C85.2757 61.4182 85.4403 62.0312 85.6099 62.5627C85.781 63.0926 85.9538 63.5262 86.1234 63.8588C86.1283 63.8669 86.1315 63.8767 86.1364 63.8849C86.3108 64.2175 86.6679 64.4212 87.0412 64.3919C87.7911 64.3332 88.3763 64.2533 88.9045 63.9729C89.6935 63.5539 90.0098 63.1447 90.401 62.4763C90.7922 61.8079 91.0971 60.7123 91.4231 59.8792C91.7492 59.0478 92.142 58.2147 92.5985 57.3816C92.6637 57.2512 92.7501 57.1648 92.8561 57.1241C92.962 57.0833 93.0729 57.0621 93.187 57.0621C93.35 57.0621 93.5016 57.1159 93.6402 57.2219C93.7788 57.3278 93.8472 57.4713 93.8472 57.6506C93.8472 57.7158 93.8228 57.8055 93.7739 57.9196C93.2196 58.8831 92.9816 59.8581 92.574 60.8053C92.1665 61.7525 91.9513 62.6442 91.4851 63.4039C91.0205 64.1637 90.608 64.7978 89.524 65.3652C88.8262 65.7304 87.9313 65.9032 86.9189 65.9032C86.0044 65.9032 85.2838 65.5527 84.7524 64.4131L84.7556 64.4147ZM83.8623 42.3992C83.7319 43.4117 83.639 44.354 83.5803 45.2278C83.5232 46.1 83.4955 46.9543 83.4955 47.7857C83.4955 49.0101 83.5558 50.2263 83.6781 51.4343C83.8003 52.6424 83.9764 53.9645 84.2046 55.4008C84.7442 53.8667 85.1681 52.362 85.4778 50.8833C85.7875 49.4062 85.944 47.7939 85.944 46.0478C85.944 44.8561 85.9196 43.8616 85.8707 43.0611C85.8218 42.2623 85.7517 41.6265 85.6637 41.1521C85.574 40.6793 85.4713 40.3451 85.3572 40.1478C85.2431 39.9522 85.1208 39.8544 84.9904 39.8544C84.86 39.8544 84.7247 39.9571 84.5861 40.1608C84.4475 40.3646 84.3253 40.6027 84.2193 40.87C84.1133 41.139 84.0269 41.4097 83.9617 41.6786C83.8965 41.9476 83.8639 42.1563 83.8639 42.3031L83.8639 42.4025L83.8623 42.3992Z" fill="#1D1D1B"/>
<path d="M96.6105 46.7816C96.1215 46.7816 95.6927 46.7946 95.3243 46.8191C94.9559 46.8435 94.6054 46.8729 94.2712 46.9039C93.937 46.9365 93.6012 46.9772 93.267 47.0278C92.9328 47.0767 92.5448 47.1256 92.1047 47.1745C91.6482 47.1745 91.2146 47.15 90.807 47.1011L90.807 47.9831L90.6603 50.6275C90.7434 51.6236 90.8934 52.6523 91.1135 53.712C91.3336 54.7733 91.6564 55.7368 92.0802 56.6025C92.5057 57.4682 93.0388 58.1822 93.6843 58.7447C94.3282 59.3088 95.1173 59.5892 96.0465 59.5892C96.6986 59.5892 97.3245 59.4946 97.9196 59.3071C98.5146 59.1197 99.1031 58.8947 99.6818 58.6338C100.262 58.373 100.836 58.104 101.408 57.8252C101.979 57.548 102.575 57.3117 103.195 57.116C103.309 57.0508 103.423 57.0182 103.537 57.0182C103.733 57.0182 103.893 57.103 104.015 57.2758C104.137 57.447 104.199 57.6393 104.199 57.8513C104.199 58.2116 104.028 58.448 103.686 58.5621C103.05 58.7903 102.416 59.0561 101.788 59.3577C101.159 59.6593 100.528 59.9527 99.8905 60.2397C99.2547 60.525 98.6042 60.7662 97.944 60.9619C97.2822 61.1575 96.5926 61.2553 95.8753 61.2553C95.4009 61.2553 94.9477 61.2015 94.5157 61.0956C94.0837 60.9896 93.6794 60.7972 93.3045 60.5201C92.4062 59.9658 91.6808 59.2517 91.1249 58.3779C90.5706 57.5057 90.137 56.5748 89.8273 55.5868C89.5175 54.5988 89.3089 53.6109 89.2029 52.6246C89.097 51.6366 89.0432 50.7514 89.0432 49.9688C89.0432 49.7895 89.0464 49.6379 89.0562 49.5156C89.066 49.3933 89.0725 49.2335 89.0806 49.0379C89.0888 48.8423 89.097 48.5814 89.1051 48.2537C89.1133 47.9277 89.1181 47.463 89.1181 46.8582C88.8899 46.8256 88.6291 46.8044 88.334 46.7963C88.0406 46.7881 87.7635 46.7637 87.5026 46.7229C87.2418 46.6821 87.0217 46.5974 86.8408 46.4653C86.6614 46.3349 86.5718 46.1311 86.5718 45.854C86.5718 45.642 86.6288 45.4464 86.743 45.2654C86.8571 45.0861 87.0364 44.9964 87.2825 44.9964C87.6086 44.9964 87.9232 45.0127 88.2248 45.0453C88.528 45.0779 88.8247 45.1187 89.1181 45.1676L88.9682 38.7182L88.9959 38.7524C88.9796 38.7524 88.9714 38.7442 88.9714 38.7279C88.9714 38.4997 89.0497 38.3285 89.2045 38.2144C89.3594 38.1003 89.5355 38.0432 89.7311 38.0432C89.9593 38.0432 90.1712 38.1215 90.3669 38.2763C90.5625 38.4312 90.6603 38.6725 90.6603 38.9986L90.6603 45.4138C90.9391 45.4464 91.1918 45.4676 91.42 45.4757C91.6498 45.4839 91.8764 45.4888 92.1063 45.4888L98.2277 44.998C98.4559 45.0633 98.632 45.1855 98.7542 45.3649C98.8765 45.5458 98.9384 45.7398 98.9384 45.9534C98.9384 46.1979 98.8569 46.3789 98.6939 46.493C98.5309 46.6071 98.3271 46.6887 98.0826 46.7376C97.8364 46.7865 97.5805 46.806 97.3115 46.7979C97.0425 46.7897 96.8094 46.7848 96.6138 46.7848L96.6105 46.7816Z" fill="#1D1D1B"/>
<path d="M22.3534 77.3513C32.4378 75.9753 42.5482 74.7819 52.675 73.7728C62.7431 72.7685 72.8291 71.9469 82.9265 71.3062C88.6159 70.9459 94.3086 70.6426 100.004 70.3965C100.616 70.3704 100.619 69.415 100.004 69.4427C89.7929 69.8845 79.5895 70.5089 69.4024 71.3192C59.2659 72.1262 49.1424 73.1174 39.0417 74.2896C33.3882 74.9466 27.7395 75.6607 22.1007 76.4318C21.8431 76.4677 21.7078 76.7937 21.7681 77.0187C21.8415 77.2942 22.1007 77.3872 22.355 77.3513L22.3534 77.3513Z" fill="#1D1D1B"/>
</svg>
